# xmcd
#
# Track frame offsets:
# 150
# 27944
# 46669
# 66724
# 84926
# 106425
# 128133
# 142849
# 155661
# 171398
# 188434
# 204769
# 224371
# 242836
# 262096
# 281619
# 301004
# 318947
# 348129
#
# Disc length: 4799 seconds
#
#
# Revision: 0
# Processed by: cddbd v1.5.2PL0 Copyright (c) Steve Scherf et al.
# Submitted via: FreeRIP 2.96 
#
DISCID=0a12bd13
DTITLE=Kai, Dayan - The First 12 Years
DYEAR=1900
DGENRE=Blues
TTITLE0=A Flat Minor Thang
TTITLE1=Deference
TTITLE2=Look Out The Window
TTITLE3=Could've Gone Fishing
TTITLE4=Sea Cliff Waltz
TTITLE5=It's Been A Good Life
TTITLE6=Halli-Burton For President
TTITLE7=For Paulina
TTITLE8=Free To Go
TTITLE9=Life's Song
TTITLE10=The News (Live At KPIG)
TTITLE11=The Song
TTITLE12=Steeple In The Town
TTITLE13=Alone
TTITLE14=What Is Real
TTITLE15=There It Is
TTITLE16=I'd Rather Be Dead Than Be Tamed
TTITLE17=The War Waltz
TTITLE18=???
EXTD=
EXTT0=
EXTT1=
EXTT2=
EXTT3=
EXTT4=
EXTT5=
EXTT6=
EXTT7=
EXTT8=
EXTT9=
EXTT10=
EXTT11=
EXTT12=
EXTT13=
EXTT14=
EXTT15=
EXTT16=
EXTT17=
EXTT18=
PLAYORDER=
